<?xml version="1.0" encoding="UTF-8"?>
<svg xmlns="http://www.w3.org/2000/svg" version="1.1" viewBox="0 0 269.4 99.1">
  <defs>
    <style>
      .cls-1 {
        fill: none;
      }

      .cls-2 {
        fill: #fff;
      }
    </style>
  </defs>
  <!-- Generator: Adobe Illustrator 28.7.1, SVG Export Plug-In . SVG Version: 1.2.0 Build 142)  -->
  <g>
    <g id="Vrstva_1">
      <rect x=".1" y="0" width="99.2" height="99.2"/>
      <polygon class="cls-2" points="46.7 15.2 16.1 15.2 16.1 26.4 46.7 26.4 46.7 26.3 46.7 15.2"/>
      <path class="cls-2" d="M46.7,82.7h11.5v-38.9c0-4,3.4-7.2,7.7-7.2h17.2v-10.2h-36.4v56.3Z"/>
      <polygon class="cls-2" points="225 33 218.1 53.6 232.1 53.6 225.3 33 225 33"/>
      <polygon class="cls-1" points="134.4 52.1 155.4 52.1 155.4 44.1 134.4 44.1 134.4 29.1 156.9 29.1 156.9 21.1 125 21.1 125 75.5 134.4 75.5 134.4 52.1"/>
      <polygon class="cls-1" points="177.5 52.1 198.5 52.1 198.5 44.1 177.5 44.1 177.5 29.1 200 29.1 200 21.1 168.2 21.1 168.2 75.5 177.5 75.5 177.5 52.1"/>
      <polygon class="cls-1" points="215.4 61.7 234.8 61.7 239.4 75.5 249.1 75.5 230.3 21.1 220.7 21.1 202 75.5 210.8 75.5 215.4 61.7"/>
      <path class="cls-2" d="M106.2,96.2h160.5V2.8H106.2v93.4ZM220.7,21.1h9.6l18.7,54.4h-9.7l-4.6-13.8h-19.4l-4.6,13.8h-8.9l18.7-54.4ZM168.2,21.1h31.9v8.1h-22.5v14.9h21v8.1h-21v23.3h-9.3V21.1ZM125,21.1h31.9v8.1h-22.5v14.9h21v8.1h-21v23.3h-9.3V21.1Z"/>
      <path d="M103.2,0v99.2h0s166.4,0,166.4,0V0H103.2ZM266.7,96.2H106.2V2.8h160.5v93.4Z"/>
      <path class="cls-2" d="M220.7,21.1l-18.7,54.4h8.9l4.6-13.8h19.4l4.6,13.8h9.7l-18.7-54.4h-9.6ZM218.1,53.6l6.9-20.6h.3l6.8,20.6h-14.1Z"/>
      <polygon class="cls-2" points="168.2 75.5 177.5 75.5 177.5 52.1 198.5 52.1 198.5 44.1 177.5 44.1 177.5 29.1 200 29.1 200 21.1 168.2 21.1 168.2 75.5"/>
      <polygon class="cls-2" points="125 75.5 134.4 75.5 134.4 52.1 155.4 52.1 155.4 44.1 134.4 44.1 134.4 29.1 156.9 29.1 156.9 21.1 125 21.1 125 75.5"/>
      <g>
        <path d="M230.3,21.1h-9.6l-18.7,54.4h8.9l4.6-13.8h19.4l4.6,13.8h9.7l-18.7-54.4ZM218.1,53.6l6.9-20.6h.3l6.8,20.6h-14.1Z"/>
        <polygon points="168.2 75.5 177.5 75.5 177.5 52.1 198.5 52.1 198.5 44.1 177.5 44.1 177.5 29.1 200 29.1 200 21.1 168.2 21.1 168.2 75.5"/>
        <polygon points="125 75.5 134.4 75.5 134.4 52.1 155.4 52.1 155.4 44.1 134.4 44.1 134.4 29.1 156.9 29.1 156.9 21.1 125 21.1 125 75.5"/>
      </g>
    </g>
  </g>
</svg>